<?xml version="1.0" standalone="no"?>
<!DOCTYPE svg PUBLIC "-//W3C//DTD SVG 20010904//EN"
 "http://www.w3.org/TR/2001/REC-SVG-20010904/DTD/svg10.dtd">
<svg version="1.0" xmlns="http://www.w3.org/2000/svg"
 width="512.000000pt" height="512.000000pt" viewBox="0 0 512.000000 512.000000"
 preserveAspectRatio="xMidYMid meet">

<g transform="translate(0.000000,512.000000) scale(0.100000,-0.100000)"
fill="#000000" stroke="none">
<path d="M3803 4786 c-239 -46 -442 -178 -564 -366 l-32 -50 -1166 0 c-1255 0
-1224 1 -1338 -52 -135 -62 -250 -172 -314 -303 -73 -147 -70 -91 -67 -1383
l3 -1157 27 -73 c38 -105 83 -176 158 -252 76 -75 147 -120 252 -158 l73 -27
537 -3 538 -3 195 -289 c172 -255 201 -293 243 -317 37 -22 59 -28 107 -28
110 0 122 12 345 343 l195 290 535 4 535 3 85 31 c47 16 111 47 142 68 84 55
180 163 222 248 74 149 69 78 75 1133 l6 950 39 50 c52 66 111 191 137 290 33
123 31 319 -5 438 -45 151 -108 259 -210 365 -105 109 -250 194 -398 233 -97
25 -263 32 -355 15z m280 -435 c129 -45 229 -148 272 -280 26 -80 18 -217 -17
-293 -37 -80 -73 -124 -142 -175 -169 -125 -403 -105 -552 46 -225 229 -128
609 181 707 63 20 193 17 258 -5z m-981 -491 c31 -390 363 -723 758 -759 82
-7 216 0 273 14 l27 7 0 -784 0 -784 -26 -52 c-20 -41 -37 -59 -78 -82 l-51
-30 -557 0 c-367 0 -575 -4 -608 -11 -32 -7 -65 -23 -86 -41 -19 -17 -91 -114
-161 -217 -69 -102 -129 -190 -133 -194 -4 -5 -65 76 -135 180 -148 217 -156
228 -210 256 -39 22 -50 22 -637 27 l-596 5 -43 30 c-23 17 -53 50 -66 74
l-23 44 0 1124 c0 1104 0 1125 20 1163 24 47 76 91 127 107 28 9 314 11 1118
10 l1080 -2 7 -85z"/>
<path d="M1319 2866 c-74 -26 -122 -80 -138 -155 -28 -131 71 -254 204 -254
153 1 256 152 196 288 -29 65 -46 83 -106 111 -56 26 -102 29 -156 10z"/>
<path d="M2365 2857 c-60 -29 -77 -47 -106 -112 -45 -102 6 -228 111 -273 75
-32 183 -9 236 50 55 60 72 156 42 228 -46 108 -177 158 -283 107z"/>
<path d="M3446 2865 c-87 -31 -142 -121 -134 -219 16 -194 269 -259 382 -99
59 85 44 209 -35 276 -63 55 -137 69 -213 42z"/>
</g>
</svg>
